<svg preserveAspectRatio="none" width="100%" height="100%" overflow="visible" style="display: block;" viewBox="0 0 24 24" fill="none" xmlns="http://www.w3.org/2000/svg">
<g id="Speedometer">
<path id="Vector" d="M10.7194 14.4694L19.7194 5.46938C19.7891 5.39969 19.8718 5.34442 19.9628 5.30671C20.0539 5.26899 20.1515 5.24958 20.25 5.24958C20.3485 5.24958 20.4461 5.26899 20.5372 5.30671C20.6282 5.34442 20.7109 5.39969 20.7806 5.46938C20.8503 5.53906 20.9056 5.62178 20.9433 5.71283C20.981 5.80387 21.0004 5.90145 21.0004 6C21.0004 6.09855 20.981 6.19613 20.9433 6.28717C20.9056 6.37822 20.8503 6.46094 20.7806 6.53063L11.7806 15.5306C11.7109 15.6003 11.6282 15.6556 11.5372 15.6933C11.4461 15.731 11.3485 15.7504 11.25 15.7504C11.1515 15.7504 11.0539 15.731 10.9628 15.6933C10.8718 15.6556 10.7891 15.6003 10.7194 15.5306C10.6497 15.4609 10.5944 15.3782 10.5567 15.2872C10.519 15.1961 10.4996 15.0985 10.4996 15C10.4996 14.9015 10.519 14.8039 10.5567 14.7128C10.5944 14.6218 10.6497 14.5391 10.7194 14.4694ZM12 8.25C12.6515 8.24917 13.2987 8.35462 13.9163 8.56219C14.01 8.59543 14.1094 8.60969 14.2088 8.60413C14.3081 8.59857 14.4053 8.57331 14.4948 8.52982C14.5842 8.48633 14.6642 8.42548 14.7299 8.3508C14.7956 8.27613 14.8458 8.18913 14.8776 8.09486C14.9094 8.0006 14.9221 7.90095 14.915 7.80173C14.9078 7.70251 14.8811 7.60569 14.8362 7.51691C14.7913 7.42814 14.7292 7.34918 14.6535 7.28463C14.5778 7.22008 14.4901 7.17124 14.3953 7.14094C13.2001 6.73801 11.9226 6.643 10.681 6.86472C9.4393 7.08644 8.27362 7.61772 7.29175 8.40941C6.30987 9.2011 5.54351 10.2276 5.06357 11.394C4.58362 12.5604 4.40559 13.829 4.54594 15.0825C4.56623 15.2658 4.65336 15.4352 4.79067 15.5584C4.92799 15.6815 5.10587 15.7497 5.29031 15.75C5.3175 15.75 5.34562 15.75 5.37375 15.7453C5.5714 15.7234 5.75226 15.6239 5.87656 15.4686C6.00085 15.3134 6.05841 15.1152 6.03656 14.9175C6.01216 14.6958 5.99995 14.473 6 14.25C6.00174 12.6592 6.63444 11.1341 7.75928 10.0093C8.88412 8.88444 10.4092 8.25174 12 8.25ZM21.3506 9.46875C21.3057 9.38109 21.2439 9.30314 21.1689 9.23936C21.0938 9.17557 21.0069 9.12719 20.9132 9.09698C20.8194 9.06677 20.7206 9.05533 20.6224 9.0633C20.5242 9.07127 20.4286 9.0985 20.3409 9.14344C20.2533 9.18837 20.1753 9.25014 20.1115 9.3252C20.0478 9.40026 19.9994 9.48715 19.9692 9.58091C19.939 9.67467 19.9275 9.77345 19.9355 9.87164C19.9435 9.96982 19.9707 10.0655 20.0156 10.1531C20.5705 11.2428 20.8982 12.4338 20.9788 13.6539C21.0593 14.874 20.8911 16.0978 20.4844 17.2509L3.50625 17.2444C3.03256 15.8865 2.8903 14.4351 3.09134 13.0111C3.29239 11.5872 3.83091 10.2319 4.66201 9.05823C5.49311 7.8846 6.59271 6.92663 7.86916 6.26419C9.1456 5.60175 10.5619 5.25402 12 5.25H12.0825C13.4793 5.25878 14.8545 5.59599 16.0969 6.23438C16.1848 6.28275 16.2815 6.313 16.3813 6.32333C16.4811 6.33366 16.5819 6.32386 16.6779 6.29451C16.7738 6.26517 16.8629 6.21687 16.9398 6.15248C17.0168 6.08809 17.08 6.00891 17.1258 5.91965C17.1716 5.83038 17.199 5.73283 17.2064 5.63277C17.2139 5.53272 17.2011 5.43219 17.169 5.33714C17.1369 5.2421 17.086 5.15446 17.0194 5.07943C16.9528 5.0044 16.8718 4.94349 16.7812 4.90031C14.9109 3.9423 12.7961 3.56755 10.7105 3.82452C8.62481 4.08149 6.66424 4.95837 5.08237 6.34172C3.5005 7.72508 2.37011 9.55126 1.83741 11.5841C1.30472 13.6168 1.39423 15.7627 2.09438 17.7441C2.1978 18.0376 2.3896 18.2919 2.64343 18.4721C2.89725 18.6522 3.20063 18.7493 3.51187 18.75H20.4872C20.7983 18.7502 21.1017 18.6537 21.3555 18.4738C21.6093 18.2939 21.8009 18.0395 21.9037 17.7459C22.3768 16.4005 22.5717 14.9731 22.4766 13.5501C22.3815 12.1272 21.9984 10.7383 21.3506 9.46781V9.46875Z" fill="var(--fill-0, #F5C139)"/>
</g>
</svg>
