<svg preserveAspectRatio="none" width="100%" height="100%" overflow="visible" style="display: block;" viewBox="0 0 24 24" fill="none" xmlns="http://www.w3.org/2000/svg">
<g id="GameController">
<path id="Vector" d="M16.5 10.5H14.25C14.0511 10.5 13.8603 10.421 13.7197 10.2803C13.579 10.1397 13.5 9.94891 13.5 9.75C13.5 9.55109 13.579 9.36032 13.7197 9.21967C13.8603 9.07902 14.0511 9 14.25 9H16.5C16.6989 9 16.8897 9.07902 17.0303 9.21967C17.171 9.36032 17.25 9.55109 17.25 9.75C17.25 9.94891 17.171 10.1397 17.0303 10.2803C16.8897 10.421 16.6989 10.5 16.5 10.5ZM9.75 9H9V8.25C9 8.05109 8.92098 7.86032 8.78033 7.71967C8.63968 7.57902 8.44891 7.5 8.25 7.5C8.05109 7.5 7.86032 7.57902 7.71967 7.71967C7.57902 7.86032 7.5 8.05109 7.5 8.25V9H6.75C6.55109 9 6.36032 9.07902 6.21967 9.21967C6.07902 9.36032 6 9.55109 6 9.75C6 9.94891 6.07902 10.1397 6.21967 10.2803C6.36032 10.421 6.55109 10.5 6.75 10.5H7.5V11.25C7.5 11.4489 7.57902 11.6397 7.71967 11.7803C7.86032 11.921 8.05109 12 8.25 12C8.44891 12 8.63968 11.921 8.78033 11.7803C8.92098 11.6397 9 11.4489 9 11.25V10.5H9.75C9.94891 10.5 10.1397 10.421 10.2803 10.2803C10.421 10.1397 10.5 9.94891 10.5 9.75C10.5 9.55109 10.421 9.36032 10.2803 9.21967C10.1397 9.07902 9.94891 9 9.75 9ZM22.6388 18.8109C22.3561 19.2146 21.9885 19.5514 21.5617 19.7978C21.135 20.0442 20.6595 20.1941 20.1686 20.2371C19.6777 20.2801 19.1833 20.2151 18.7203 20.0466C18.2572 19.8781 17.8366 19.6103 17.4881 19.2619C17.4769 19.2506 17.4656 19.2394 17.4553 19.2272L13.7325 15H10.2638L6.54469 19.2272L6.51187 19.2619C5.87832 19.8941 5.02002 20.2494 4.125 20.25C3.63229 20.2498 3.14559 20.1418 2.69909 19.9334C2.2526 19.7251 1.85714 19.4215 1.54049 19.044C1.22384 18.6665 0.993686 18.2242 0.866192 17.7483C0.738699 17.2724 0.716959 16.7743 0.8025 16.2891C0.802048 16.2847 0.802048 16.2803 0.8025 16.2759L2.33719 8.3925C2.56559 7.09225 3.24493 5.91409 4.25583 5.06504C5.26674 4.21599 6.54453 3.75037 7.86469 3.75H16.125C17.4412 3.7521 18.715 4.21506 19.7255 5.05849C20.7359 5.90193 21.419 7.07258 21.6563 8.36719C21.6563 8.37281 21.6563 8.37844 21.6563 8.38406L23.1909 16.275C23.1914 16.2794 23.1914 16.2838 23.1909 16.2881C23.2704 16.7243 23.2625 17.1718 23.1677 17.6049C23.0729 18.0379 22.8931 18.4479 22.6388 18.8109ZM16.125 13.5C17.219 13.5 18.2682 13.0654 19.0418 12.2918C19.8154 11.5182 20.25 10.469 20.25 9.375C20.25 8.28098 19.8154 7.23177 19.0418 6.45818C18.2682 5.6846 17.219 5.25 16.125 5.25H7.86469C6.8962 5.25087 5.95905 5.59325 5.2181 6.21691C4.47715 6.84057 3.97987 7.70556 3.81375 8.65969V8.67188L2.27812 16.5553C2.21025 16.9461 2.26808 17.3484 2.44329 17.7043C2.61851 18.0602 2.90208 18.3514 3.25323 18.5359C3.60438 18.7204 4.00501 18.7889 4.3975 18.7313C4.78999 18.6738 5.15411 18.4932 5.4375 18.2156L9.3675 13.7541C9.43787 13.6742 9.52442 13.6103 9.6214 13.5665C9.71839 13.5227 9.82358 13.5 9.93 13.5H16.125ZM21.7219 16.5553L20.9025 12.3366C20.3986 13.1503 19.6953 13.822 18.8593 14.2881C18.0233 14.7542 17.0822 14.9992 16.125 15H15.7313L18.5625 18.2166C18.776 18.4242 19.0356 18.5783 19.3202 18.6661C19.6047 18.7539 19.906 18.773 20.1994 18.7219C20.6881 18.6356 21.1227 18.3591 21.4079 17.953C21.6931 17.5469 21.8057 17.0443 21.7209 16.5553H21.7219Z" fill="var(--fill-0, #F5C139)"/>
</g>
</svg>
