<svg preserveAspectRatio="none" width="100%" height="100%" overflow="visible" style="display: block;" viewBox="0 0 24 24" fill="none" xmlns="http://www.w3.org/2000/svg">
<g id="Infinity">
<path id="Vector" d="M23.25 12C23.2501 13.0384 22.9422 14.0535 22.3653 14.9169C21.7885 15.7804 20.9685 16.4533 20.0091 16.8507C19.0498 17.2481 17.9941 17.3521 16.9757 17.1495C15.9572 16.9469 15.0217 16.4468 14.2875 15.7125L14.2566 15.6797L8.63625 9.33281C8.11007 8.81278 7.44182 8.45999 6.7156 8.31887C5.98938 8.17774 5.23765 8.25457 4.55499 8.53968C3.87234 8.8248 3.28927 9.30547 2.87916 9.9212C2.46905 10.5369 2.25023 11.2602 2.25023 12C2.25023 12.7398 2.46905 13.4631 2.87916 14.0788C3.28927 14.6945 3.87234 15.1752 4.55499 15.4603C5.23765 15.7454 5.98938 15.8223 6.7156 15.6811C7.44182 15.54 8.11007 15.1872 8.63625 14.6672L9.435 13.7653C9.50031 13.6914 9.57953 13.6312 9.66814 13.5879C9.75675 13.5447 9.85301 13.5193 9.95143 13.5132C10.0498 13.5072 10.1485 13.5206 10.2417 13.5526C10.335 13.5847 10.421 13.6348 10.4948 13.7002C10.5687 13.7655 10.629 13.8447 10.6722 13.9333C10.7155 14.0219 10.7409 14.1182 10.7469 14.2166C10.753 14.315 10.7396 14.4136 10.7075 14.5069C10.6754 14.6001 10.6253 14.6861 10.56 14.76L9.74531 15.6797L9.71438 15.7125C8.98013 16.4467 8.04467 16.9466 7.02628 17.1492C6.0079 17.3517 4.95232 17.2477 3.99304 16.8503C3.03376 16.4529 2.21385 15.78 1.637 14.9167C1.06015 14.0533 0.752254 13.0383 0.752254 12C0.752254 10.9617 1.06015 9.94666 1.637 9.08331C2.21385 8.21997 3.03376 7.54706 3.99304 7.14968C4.95232 6.75231 6.0079 6.64831 7.02628 6.85084C8.04467 7.05337 8.98013 7.55333 9.71438 8.2875L9.74531 8.32031L15.3656 14.6672C15.8918 15.1872 16.5601 15.54 17.2863 15.6811C18.0125 15.8223 18.7642 15.7454 19.4469 15.4603C20.1295 15.1752 20.7126 14.6945 21.1227 14.0788C21.5328 13.4631 21.7516 12.7398 21.7516 12C21.7516 11.2602 21.5328 10.5369 21.1227 9.9212C20.7126 9.30547 20.1295 8.8248 19.4469 8.53968C18.7642 8.25457 18.0125 8.17774 17.2863 8.31887C16.5601 8.45999 15.8918 8.81278 15.3656 9.33281L14.5669 10.2347C14.435 10.3839 14.2492 10.4745 14.0504 10.4868C13.8517 10.499 13.6562 10.4317 13.507 10.2998C13.3578 10.1679 13.2672 9.98218 13.255 9.78342C13.2427 9.58466 13.31 9.38918 13.4419 9.24L14.2566 8.32031L14.2875 8.2875C15.0217 7.5532 15.9572 7.05312 16.9757 6.85052C17.9941 6.64792 19.0498 6.75188 20.0091 7.14927C20.9685 7.54667 21.7885 8.21963 22.3653 9.08306C22.9422 9.94649 23.2501 10.9616 23.25 12Z" fill="var(--fill-0, #F5C139)"/>
</g>
</svg>
