<svg preserveAspectRatio="none" width="100%" height="100%" overflow="visible" style="display: block;" viewBox="0 0 24 24" fill="none" xmlns="http://www.w3.org/2000/svg">
<g id="GridNine">
<path id="Vector" d="M20.25 4.5H3.75C3.35218 4.5 2.97064 4.65804 2.68934 4.93934C2.40804 5.22064 2.25 5.60218 2.25 6V18C2.25 18.3978 2.40804 18.7794 2.68934 19.0607C2.97064 19.342 3.35218 19.5 3.75 19.5H20.25C20.6478 19.5 21.0294 19.342 21.3107 19.0607C21.592 18.7794 21.75 18.3978 21.75 18V6C21.75 5.60218 21.592 5.22064 21.3107 4.93934C21.0294 4.65804 20.6478 4.5 20.25 4.5ZM9.75 13.5V10.5H14.25V13.5H9.75ZM14.25 15V18H9.75V15H14.25ZM3.75 10.5H8.25V13.5H3.75V10.5ZM9.75 9V6H14.25V9H9.75ZM15.75 10.5H20.25V13.5H15.75V10.5ZM20.25 9H15.75V6H20.25V9ZM8.25 6V9H3.75V6H8.25ZM3.75 15H8.25V18H3.75V15ZM20.25 18H15.75V15H20.25V18Z" fill="var(--fill-0, #F5C139)"/>
</g>
</svg>
