<svg preserveAspectRatio="none" width="100%" height="100%" overflow="visible" style="display: block;" viewBox="0 0 24 24" fill="none" xmlns="http://www.w3.org/2000/svg">
<g id="Steps">
<path id="Vector" d="M23.25 5.25C23.25 5.44891 23.171 5.63968 23.0303 5.78033C22.8897 5.92098 22.6989 6 22.5 6H18V9.75C18 9.94891 17.921 10.1397 17.7803 10.2803C17.6397 10.421 17.4489 10.5 17.25 10.5H12.75V14.25C12.75 14.4489 12.671 14.6397 12.5303 14.7803C12.3897 14.921 12.1989 15 12 15H7.5V18.75C7.5 18.9489 7.42098 19.1397 7.28033 19.2803C7.13968 19.421 6.94891 19.5 6.75 19.5H1.5C1.30109 19.5 1.11032 19.421 0.96967 19.2803C0.829018 19.1397 0.75 18.9489 0.75 18.75C0.75 18.5511 0.829018 18.3603 0.96967 18.2197C1.11032 18.079 1.30109 18 1.5 18H6V14.25C6 14.0511 6.07902 13.8603 6.21967 13.7197C6.36032 13.579 6.55109 13.5 6.75 13.5H11.25V9.75C11.25 9.55109 11.329 9.36032 11.4697 9.21967C11.6103 9.07902 11.8011 9 12 9H16.5V5.25C16.5 5.05109 16.579 4.86032 16.7197 4.71967C16.8603 4.57902 17.0511 4.5 17.25 4.5H22.5C22.6989 4.5 22.8897 4.57902 23.0303 4.71967C23.171 4.86032 23.25 5.05109 23.25 5.25Z" fill="var(--fill-0, #F5C139)"/>
</g>
</svg>
