<svg preserveAspectRatio="none" width="100%" height="100%" overflow="visible" style="display: block;" viewBox="0 0 16 26" fill="none" xmlns="http://www.w3.org/2000/svg">
<g id="Frame 76">
<path id="&#244;&#128;&#163;&#186;" d="M9.6416 7.08936C9.05273 7.80127 8.06836 8.32861 7.28613 8.32861C7.18945 8.32861 7.10156 8.31104 7.04883 8.30225C7.04004 8.2583 7.01367 8.12646 7.01367 7.98584C7.01367 7.08936 7.4707 6.19287 7.97168 5.63037C8.5957 4.89209 9.65039 4.34717 10.5293 4.31201C10.5469 4.40869 10.5557 4.53174 10.5557 4.65479C10.5557 5.55127 10.1777 6.43896 9.6416 7.08936ZM10.2568 8.51318C10.749 8.51318 12.5332 8.56592 13.7021 10.2446C13.5967 10.3237 11.8301 11.3257 11.8301 13.5581C11.8301 16.1333 14.0801 17.0562 14.1504 17.0737C14.1416 17.1353 13.79 18.3218 12.9639 19.5435C12.2168 20.6069 11.4346 21.688 10.2568 21.688C9.07031 21.688 8.7627 20.9937 7.40918 20.9937C6.07324 20.9937 5.59863 21.688 4.52637 21.688C3.43652 21.688 2.68066 20.7124 1.81934 19.4995C0.808594 18.0669 0 15.8433 0 13.7339C0 10.3589 2.19727 8.51318 4.36816 8.51318C5.51074 8.51318 6.45996 9.31299 7.18945 9.31299C7.875 9.31299 8.94727 8.51318 10.2568 8.51318Z" fill="var(--fill-0, #F5C139)"/>
</g>
</svg>
