<svg preserveAspectRatio="none" width="100%" height="100%" overflow="visible" style="display: block;" viewBox="0 0 40 40" fill="none" xmlns="http://www.w3.org/2000/svg">
<g id="Frame 63">
<path id="your-own-icon" d="M15.4824 30.9219C13.4316 30.9219 11.8145 30.3242 10.748 29.2578C9.64648 28.168 9.07227 26.5625 9.07227 24.5117V15.4883C9.07227 13.4375 9.6582 11.832 10.748 10.7422C11.8145 9.67578 13.4316 9.07812 15.4824 9.07812H24.5059C26.5684 9.07812 28.1738 9.66406 29.252 10.7422C30.3418 11.832 30.9277 13.4375 30.9277 15.4883V24.5117C30.9277 26.5625 30.3418 28.1797 29.252 29.2578C28.1855 30.3242 26.5684 30.9219 24.5059 30.9219H15.4824ZM19.9707 25.6133C20.6504 25.6133 21.1309 25.1328 21.1309 24.4648V21.1367H24.4707C25.1387 21.1367 25.6191 20.6562 25.6191 20C25.6191 19.3203 25.1387 18.8398 24.4707 18.8398H21.1309V15.5117C21.1309 14.832 20.6504 14.3516 19.9707 14.3516C19.3027 14.3516 18.834 14.832 18.834 15.5117V18.8398H15.5059C14.8379 18.8398 14.3457 19.3203 14.3457 20C14.3457 20.6562 14.8379 21.1367 15.5059 21.1367H18.834V24.4648C18.834 25.1328 19.3027 25.6133 19.9707 25.6133Z" fill="var(--fill-0, white)" fill-opacity="0.9"/>
</g>
</svg>
