<svg preserveAspectRatio="none" width="100%" height="100%" overflow="visible" style="display: block;" viewBox="0 0 24 24" fill="none" xmlns="http://www.w3.org/2000/svg">
<g id="MicrophoneStage">
<path id="Vector" d="M15.75 1.5C13.9603 1.50174 12.2444 2.21345 10.9789 3.47895C9.71345 4.74444 9.00174 6.46032 9 8.25C9.00069 8.54534 9.02042 8.84033 9.05906 9.13312L2.5425 18.0206C2.3292 18.3091 2.22689 18.6647 2.25426 19.0224C2.28163 19.3802 2.43686 19.7161 2.69156 19.9688L4.03125 21.3084C4.28392 21.5631 4.61983 21.7184 4.97755 21.7457C5.33528 21.7731 5.6909 21.6708 5.97937 21.4575L14.8678 14.9391C15.1603 14.9783 15.4549 14.9987 15.75 15C17.5402 15 19.2571 14.2888 20.523 13.023C21.7888 11.7571 22.5 10.0402 22.5 8.25C22.5 6.45979 21.7888 4.7429 20.523 3.47703C19.2571 2.21116 17.5402 1.5 15.75 1.5ZM21 8.25C21.0014 9.38326 20.6341 10.4862 19.9537 11.3925L12.6084 4.04625C13.3887 3.46349 14.3157 3.10925 15.2858 3.02313C16.2558 2.93701 17.2307 3.12241 18.1014 3.55861C18.9722 3.9948 19.7044 4.66458 20.2163 5.49308C20.7282 6.32158 20.9995 7.27613 21 8.25ZM5.0925 20.25L3.75 18.9075L9.57563 10.9688C10.2583 12.5099 11.4901 13.7417 13.0313 14.4244L5.0925 20.25ZM10.5 8.25C10.4985 7.11701 10.8657 6.0143 11.5463 5.10844L18.8906 12.4528C18.1104 13.0353 17.1836 13.3893 16.2138 13.4753C15.2439 13.5613 14.2693 13.3759 13.3988 12.9399C12.5282 12.5038 11.7961 11.8343 11.2842 11.0061C10.7723 10.1779 10.5008 9.22364 10.5 8.25ZM10.2797 13.7194C10.4202 13.86 10.4992 14.0507 10.4992 14.2495C10.4992 14.4484 10.4202 14.639 10.2797 14.7797L9.52969 15.5297C9.46074 15.6023 9.37795 15.6603 9.28622 15.7004C9.19448 15.7405 9.09565 15.7618 8.99556 15.763C8.89546 15.7643 8.79611 15.7456 8.70338 15.7078C8.61065 15.6701 8.52641 15.6142 8.45562 15.5434C8.38484 15.4727 8.32894 15.3884 8.29122 15.2957C8.2535 15.2029 8.23473 15.1036 8.23602 15.0035C8.2373 14.9034 8.25861 14.8046 8.29868 14.7128C8.33876 14.6211 8.3968 14.5383 8.46937 14.4694L9.21937 13.7194C9.28899 13.6494 9.37171 13.5939 9.46281 13.556C9.55391 13.5181 9.6516 13.4986 9.75027 13.4985C9.84895 13.4984 9.94667 13.5178 10.0378 13.5555C10.129 13.5933 10.2118 13.6486 10.2816 13.7184L10.2797 13.7194Z" fill="var(--fill-0, white)"/>
</g>
</svg>
