<svg preserveAspectRatio="none" width="100%" height="100%" overflow="visible" style="display: block;" viewBox="0 0 40 40" fill="none" xmlns="http://www.w3.org/2000/svg">
<g id="Frame 62">
<path id="games-icon" d="M7.43164 30.8047C4.71289 30.8047 2.84961 29.0117 2.84961 26.1641C2.84961 24.9453 3.11914 23.5508 3.57617 22.0039C4.30273 19.5898 5.55664 16.3203 6.75195 13.7891C7.77148 11.668 8.32227 10.625 10.8887 10.0508C13.1387 9.53516 16.2324 9.19531 20.0059 9.19531C23.7676 9.19531 26.8613 9.53516 29.1113 10.0508C31.6777 10.625 32.2285 11.668 33.248 13.7891C34.4434 16.3203 35.6973 19.5898 36.4238 22.0039C36.8809 23.5508 37.1504 24.9453 37.1504 26.1641C37.1504 29.0117 35.2871 30.8047 32.5684 30.8047C30.834 30.8047 29.6621 30.1484 28.6074 28.9414L26.5215 26.4922C26.2285 26.1523 25.9238 25.9883 25.5605 25.9883H14.4395C14.0762 25.9883 13.7715 26.1523 13.4785 26.4922L11.3926 28.9414C10.3379 30.1484 9.16602 30.8047 7.43164 30.8047ZM10.0684 17.7148C10.0684 18.3945 10.4785 18.8164 11.1699 18.8164H13.2207V20.7969C13.2207 21.4883 13.6309 21.9219 14.2988 21.9219C14.9668 21.9219 15.377 21.4883 15.377 20.7969V18.8164H17.2988C18.0371 18.8164 18.4941 18.3945 18.4941 17.7148C18.4941 17.0469 18.0371 16.625 17.2988 16.625H15.377V14.6445C15.377 13.9648 14.9668 13.5312 14.2988 13.5312C13.6309 13.5312 13.2207 13.9648 13.2207 14.6445V16.625H11.1699C10.4785 16.625 10.0684 17.0469 10.0684 17.7148ZM27.623 17.6211C28.6309 17.6211 29.4395 16.8242 29.4395 15.8047C29.4395 14.7852 28.6309 13.9766 27.623 13.9766C26.6152 13.9766 25.7949 14.7852 25.7949 15.8047C25.7949 16.8242 26.6152 17.6211 27.623 17.6211ZM24.002 21.2891C25.0098 21.2891 25.8301 20.4688 25.8301 19.4609C25.8301 18.4531 25.0098 17.6328 24.002 17.6328C22.9941 17.6328 22.1738 18.4531 22.1738 19.4609C22.1738 20.4688 22.9941 21.2891 24.002 21.2891Z" fill="var(--fill-0, white)" fill-opacity="0.9"/>
</g>
</svg>
