<svg preserveAspectRatio="none" width="100%" height="100%" overflow="visible" style="display: block;" viewBox="0 0 40 40" fill="none" xmlns="http://www.w3.org/2000/svg">
<g id="Frame 60">
<path id="movies-icon" d="M8.69727 30.9395C7.13867 30.9395 6.11914 29.9316 6.11914 28.3965V11.6035C6.11914 10.0684 7.13867 9.06055 8.69727 9.06055H31.291C32.8613 9.06055 33.8809 10.0684 33.8809 11.6035V28.3965C33.8809 29.9316 32.8613 30.9395 31.291 30.9395H8.69727ZM8.68555 13.5605H10.0918C10.4082 13.5605 10.6309 13.3262 10.6309 13.0215V11.7676C10.6309 11.4395 10.4082 11.2168 10.0918 11.2168H8.7207C8.35742 11.2168 8.12305 11.4512 8.12305 11.8027V13.0215C8.12305 13.3262 8.3457 13.5605 8.68555 13.5605ZM29.8848 13.5605H31.291C31.6191 13.5605 31.8535 13.3262 31.8535 13.0215V11.8027C31.8535 11.4512 31.6191 11.2168 31.2559 11.2168H29.8848C29.5684 11.4395 29.334 11.4395 29.334 11.7676V13.0215C29.334 13.3262 29.5684 13.5605 29.8848 13.5605ZM8.68555 17.3926H10.0918C10.4082 17.3926 10.6309 17.1465 10.6309 16.8652V15.623C10.6309 15.2949 10.4082 15.0605 10.0918 15.0605H8.68555C8.3457 15.0605 8.12305 15.2949 8.12305 15.623V16.8652C8.12305 17.1465 8.3457 17.3926 8.68555 17.3926ZM29.8848 17.3926H31.291C31.6191 17.3926 31.8535 17.1465 31.8535 16.8652V15.623C31.8535 15.2949 31.6309 15.0605 31.291 15.0605H29.8848C29.5684 15.0605 29.334 15.2949 29.334 15.623V16.8652C29.334 17.1465 29.5684 17.3926 29.8848 17.3926ZM8.68555 21.1543H10.0918C10.4082 21.1543 10.6309 20.9199 10.6309 20.627V19.3965C10.6309 19.0566 10.4082 18.834 10.0918 18.834H8.68555C8.3457 18.834 8.12305 19.0566 8.12305 19.3965V20.627C8.12305 20.9199 8.3457 21.1543 8.68555 21.1543ZM29.8848 21.1543H31.291C31.6191 21.1543 31.8535 20.9199 31.8535 20.627V19.3965C31.8535 19.0566 31.6309 18.834 31.291 18.834H29.8848C29.5684 18.834 29.334 19.0566 29.334 19.3965V20.627C29.334 20.9199 29.5684 21.1543 29.8848 21.1543ZM11.9902 19.9941C11.9902 20.5449 12.4238 20.9902 12.9746 20.9902H27.0137C27.5645 20.9902 28.0098 20.5449 28.0098 19.9941C28.0098 19.4551 27.5645 19.0098 27.0137 19.0098H12.9746C12.4238 19.0098 11.9902 19.4551 11.9902 19.9941ZM8.68555 24.9512H10.0918C10.4082 24.9512 10.6309 24.7051 10.6309 24.4004V23.1816C10.6309 22.8418 10.4082 22.6191 10.0918 22.6191H8.68555C8.3457 22.6191 8.12305 22.8418 8.12305 23.1816V24.4004C8.12305 24.7051 8.3457 24.9512 8.68555 24.9512ZM29.8848 24.9512H31.291C31.6191 24.9512 31.8535 24.7051 31.8535 24.4004V23.1816C31.8535 22.8418 31.6309 22.6191 31.291 22.6191H29.8848C29.5684 22.6191 29.334 22.8418 29.334 23.1816V24.4004C29.334 24.7051 29.5684 24.9512 29.8848 24.9512ZM8.7207 28.7832H10.0918C10.4082 28.7832 10.6309 28.5488 10.6309 28.2324V26.9902C10.6309 26.6621 10.4082 26.4395 10.0918 26.4395H8.68555C8.3457 26.4395 8.12305 26.6621 8.12305 26.9902V28.1973C8.12305 28.5488 8.35742 28.7832 8.7207 28.7832ZM29.8848 28.7832H31.2559C31.6191 28.7832 31.8535 28.5488 31.8535 28.1973V26.9902C31.8535 26.6621 31.6191 26.4395 31.291 26.4395H29.8848C29.5684 26.4395 29.334 26.6621 29.334 26.9902V28.2324C29.334 28.5488 29.5684 28.7832 29.8848 28.7832Z" fill="var(--fill-0, white)" fill-opacity="0.9"/>
</g>
</svg>
