<svg preserveAspectRatio="none" width="100%" height="100%" overflow="visible" style="display: block;" viewBox="0 0 24 24" fill="none" xmlns="http://www.w3.org/2000/svg">
<g id="Signpost">
<path id="Vector" d="M23.0625 9.99844L19.9059 6.49688C19.7653 6.34056 19.5934 6.21555 19.4014 6.12995C19.2094 6.04435 19.0015 6.00008 18.7913 6H12.75V3C12.75 2.80109 12.671 2.61032 12.5303 2.46967C12.3897 2.32902 12.1989 2.25 12 2.25C11.8011 2.25 11.6103 2.32902 11.4697 2.46967C11.329 2.61032 11.25 2.80109 11.25 3V6H3.75C3.35218 6 2.97064 6.15804 2.68934 6.43934C2.40804 6.72064 2.25 7.10218 2.25 7.5V13.5C2.25 13.8978 2.40804 14.2794 2.68934 14.5607C2.97064 14.842 3.35218 15 3.75 15H11.25V21C11.25 21.1989 11.329 21.3897 11.4697 21.5303C11.6103 21.671 11.8011 21.75 12 21.75C12.1989 21.75 12.3897 21.671 12.5303 21.5303C12.671 21.3897 12.75 21.1989 12.75 21V15H18.7913C19.0015 14.9999 19.2094 14.9556 19.4014 14.8701C19.5934 14.7845 19.7653 14.6594 19.9059 14.5031L23.0625 11.0016C23.1864 10.8639 23.2549 10.6852 23.2549 10.5C23.2549 10.3148 23.1864 10.1361 23.0625 9.99844ZM18.7913 13.5H3.75V7.5H18.7913L21.4913 10.5L18.7913 13.5Z" fill="#ffffff"/>
</g>
</svg>
