<svg preserveAspectRatio="none" width="100%" height="100%" overflow="visible" style="display: block;" viewBox="0 0 24 24" fill="none" xmlns="http://www.w3.org/2000/svg">
<g id="SpeakerX">
<path id="Vector" d="M14.5791 2.32594C14.4529 2.26448 14.3121 2.23963 14.1726 2.25421C14.033 2.2688 13.9004 2.32223 13.7897 2.40844L7.24219 7.5H3C2.60218 7.5 2.22064 7.65804 1.93934 7.93934C1.65804 8.22064 1.5 8.60218 1.5 9V15C1.5 15.3978 1.65804 15.7794 1.93934 16.0607C2.22064 16.342 2.60218 16.5 3 16.5H7.24219L13.7897 21.5916C13.9005 21.6777 14.0332 21.731 14.1728 21.7455C14.3124 21.7599 14.4533 21.7349 14.5793 21.6733C14.7054 21.6116 14.8117 21.5159 14.8861 21.3968C14.9604 21.2778 14.9999 21.1403 15 21V3C15 2.8595 14.9606 2.72181 14.8861 2.60263C14.8117 2.48346 14.7053 2.38758 14.5791 2.32594ZM3 9H6.75V15H3V9ZM13.5 19.4662L8.25 15.3834V8.61656L13.5 4.53375V19.4662ZM23.0306 13.7194C23.1714 13.8601 23.2504 14.051 23.2504 14.25C23.2504 14.449 23.1714 14.6399 23.0306 14.7806C22.8899 14.9214 22.699 15.0004 22.5 15.0004C22.301 15.0004 22.1101 14.9214 21.9694 14.7806L20.25 13.0603L18.5306 14.7806C18.3899 14.9214 18.199 15.0004 18 15.0004C17.801 15.0004 17.6101 14.9214 17.4694 14.7806C17.3286 14.6399 17.2496 14.449 17.2496 14.25C17.2496 14.051 17.3286 13.8601 17.4694 13.7194L19.1897 12L17.4694 10.2806C17.3286 10.1399 17.2496 9.94902 17.2496 9.75C17.2496 9.55098 17.3286 9.36011 17.4694 9.21937C17.6101 9.07864 17.801 8.99958 18 8.99958C18.199 8.99958 18.3899 9.07864 18.5306 9.21937L20.25 10.9397L21.9694 9.21937C22.1101 9.07864 22.301 8.99958 22.5 8.99958C22.699 8.99958 22.8899 9.07864 23.0306 9.21938C23.1714 9.36011 23.2504 9.55098 23.2504 9.75C23.2504 9.94902 23.1714 10.1399 23.0306 10.2806L21.3103 12L23.0306 13.7194Z" fill="var(--fill-0, #68FF62)"/>
</g>
</svg>
