<svg preserveAspectRatio="none" width="100%" height="100%" overflow="visible" style="display: block;" viewBox="0 0 24 24" fill="none" xmlns="http://www.w3.org/2000/svg">
<g id="MathOperations">
<path id="Vector" d="M10.5 6.75C10.5 6.94891 10.421 7.13968 10.2803 7.28033C10.1397 7.42098 9.94891 7.5 9.75 7.5H3.75C3.55109 7.5 3.36032 7.42098 3.21967 7.28033C3.07902 7.13968 3 6.94891 3 6.75C3 6.55109 3.07902 6.36032 3.21967 6.21967C3.36032 6.07902 3.55109 6 3.75 6H9.75C9.94891 6 10.1397 6.07902 10.2803 6.21967C10.421 6.36032 10.5 6.55109 10.5 6.75ZM9.75 16.5H7.5V14.25C7.5 14.0511 7.42098 13.8603 7.28033 13.7197C7.13968 13.579 6.94891 13.5 6.75 13.5C6.55109 13.5 6.36032 13.579 6.21967 13.7197C6.07902 13.8603 6 14.0511 6 14.25V16.5H3.75C3.55109 16.5 3.36032 16.579 3.21967 16.7197C3.07902 16.8603 3 17.0511 3 17.25C3 17.4489 3.07902 17.6397 3.21967 17.7803C3.36032 17.921 3.55109 18 3.75 18H6V20.25C6 20.4489 6.07902 20.6397 6.21967 20.7803C6.36032 20.921 6.55109 21 6.75 21C6.94891 21 7.13968 20.921 7.28033 20.7803C7.42098 20.6397 7.5 20.4489 7.5 20.25V18H9.75C9.94891 18 10.1397 17.921 10.2803 17.7803C10.421 17.6397 10.5 17.4489 10.5 17.25C10.5 17.0511 10.421 16.8603 10.2803 16.7197C10.1397 16.579 9.94891 16.5 9.75 16.5ZM14.25 16.5H20.25C20.4489 16.5 20.6397 16.421 20.7803 16.2803C20.921 16.1397 21 15.9489 21 15.75C21 15.5511 20.921 15.3603 20.7803 15.2197C20.6397 15.079 20.4489 15 20.25 15H14.25C14.0511 15 13.8603 15.079 13.7197 15.2197C13.579 15.3603 13.5 15.5511 13.5 15.75C13.5 15.9489 13.579 16.1397 13.7197 16.2803C13.8603 16.421 14.0511 16.5 14.25 16.5ZM20.25 18H14.25C14.0511 18 13.8603 18.079 13.7197 18.2197C13.579 18.3603 13.5 18.5511 13.5 18.75C13.5 18.9489 13.579 19.1397 13.7197 19.2803C13.8603 19.421 14.0511 19.5 14.25 19.5H20.25C20.4489 19.5 20.6397 19.421 20.7803 19.2803C20.921 19.1397 21 18.9489 21 18.75C21 18.5511 20.921 18.3603 20.7803 18.2197C20.6397 18.079 20.4489 18 20.25 18ZM14.4694 9.53063C14.539 9.60036 14.6217 9.65568 14.7128 9.69342C14.8038 9.73116 14.9014 9.75059 15 9.75059C15.0986 9.75059 15.1962 9.73116 15.2872 9.69342C15.3783 9.65568 15.461 9.60036 15.5306 9.53063L17.25 7.81031L18.9694 9.53063C19.0391 9.60031 19.1218 9.65558 19.2128 9.6933C19.3039 9.73101 19.4015 9.75042 19.5 9.75042C19.5985 9.75042 19.6961 9.73101 19.7872 9.6933C19.8782 9.65558 19.9609 9.60031 20.0306 9.53063C20.1003 9.46094 20.1556 9.37822 20.1933 9.28717C20.231 9.19613 20.2504 9.09855 20.2504 9C20.2504 8.90145 20.231 8.80387 20.1933 8.71283C20.1556 8.62178 20.1003 8.53906 20.0306 8.46937L18.3103 6.75L20.0306 5.03062C20.1714 4.88989 20.2504 4.69902 20.2504 4.5C20.2504 4.30098 20.1714 4.11011 20.0306 3.96938C19.8899 3.82864 19.699 3.74958 19.5 3.74958C19.301 3.74958 19.1101 3.82864 18.9694 3.96938L17.25 5.68969L15.5306 3.96938C15.3899 3.82864 15.199 3.74958 15 3.74958C14.801 3.74958 14.6101 3.82864 14.4694 3.96938C14.3286 4.11011 14.2496 4.30098 14.2496 4.5C14.2496 4.69902 14.3286 4.88989 14.4694 5.03062L16.1897 6.75L14.4694 8.46937C14.3996 8.53903 14.3443 8.62175 14.3066 8.71279C14.2688 8.80384 14.2494 8.90144 14.2494 9C14.2494 9.09856 14.2688 9.19616 14.3066 9.28721C14.3443 9.37825 14.3996 9.46097 14.4694 9.53063Z" fill="var(--fill-0, #68FF62)"/>
</g>
</svg>
