<svg preserveAspectRatio="none" width="100%" height="100%" overflow="visible" style="display: block;" viewBox="0 0 24 24" fill="none" xmlns="http://www.w3.org/2000/svg">
<g id="Scales">
<path id="Vector" d="M22.4466 12.4688L19.4466 4.96875C19.3805 4.80355 19.2579 4.66721 19.1006 4.58409C18.9432 4.50097 18.7615 4.47648 18.5878 4.515L12.75 5.8125V3.75C12.75 3.55109 12.671 3.36032 12.5303 3.21967C12.3897 3.07902 12.1989 3 12 3C11.8011 3 11.6103 3.07902 11.4697 3.21967C11.329 3.36032 11.25 3.55109 11.25 3.75V6.14813L5.08687 7.51781C4.96805 7.54406 4.85739 7.59883 4.76446 7.67739C4.67152 7.75595 4.5991 7.85595 4.55344 7.96875V7.97437L1.55344 15.4688C1.51755 15.5581 1.4994 15.6537 1.5 15.75C1.5 17.9353 3.80062 18.75 5.25 18.75C6.69937 18.75 9 17.9353 9 15.75C9.0006 15.6537 8.98245 15.5581 8.94656 15.4688L6.27375 8.79094L11.25 7.6875V19.5H9.75C9.55109 19.5 9.36032 19.579 9.21967 19.7197C9.07902 19.8603 9 20.0511 9 20.25C9 20.4489 9.07902 20.6397 9.21967 20.7803C9.36032 20.921 9.55109 21 9.75 21H14.25C14.4489 21 14.6397 20.921 14.7803 20.7803C14.921 20.6397 15 20.4489 15 20.25C15 20.0511 14.921 19.8603 14.7803 19.7197C14.6397 19.579 14.4489 19.5 14.25 19.5H12.75V7.35187L17.5312 6.29062L15.0534 12.4688C15.0175 12.5581 14.9994 12.6537 15 12.75C15 14.9353 17.3006 15.75 18.75 15.75C20.1994 15.75 22.5 14.9353 22.5 12.75C22.5006 12.6537 22.4824 12.5581 22.4466 12.4688ZM5.25 17.25C4.54406 17.25 3.11625 16.9116 3.00656 15.8775L5.25 10.2694L7.49344 15.8775C7.38375 16.9116 5.95594 17.25 5.25 17.25ZM18.75 14.25C18.0441 14.25 16.6163 13.9116 16.5066 12.8775L18.75 7.26938L20.9934 12.8775C20.8837 13.9116 19.4559 14.25 18.75 14.25Z" fill="var(--fill-0, #68FF62)"/>
</g>
</svg>
