<svg preserveAspectRatio="none" width="100%" height="100%" overflow="visible" style="display: block;" viewBox="0 0 24 24" fill="none" xmlns="http://www.w3.org/2000/svg">
<g id="Fire">
<path id="Vector" d="M17.2397 14.3756C17.0452 15.4619 16.5226 16.4625 15.7422 17.2428C14.9618 18.023 13.961 18.5454 12.8747 18.7397C12.8334 18.7463 12.7918 18.7497 12.75 18.75C12.5619 18.7499 12.3806 18.6792 12.2422 18.5518C12.1038 18.4244 12.0183 18.2496 12.0028 18.0621C11.9872 17.8746 12.0426 17.6881 12.1581 17.5396C12.2736 17.3911 12.4407 17.2914 12.6262 17.2603C14.1797 16.9987 15.4978 15.6806 15.7612 14.1244C15.7946 13.9282 15.9045 13.7533 16.0667 13.6381C16.229 13.523 16.4304 13.477 16.6266 13.5103C16.8227 13.5436 16.9976 13.6535 17.1128 13.8158C17.228 13.9781 17.2739 14.1794 17.2406 14.3756H17.2397ZM20.25 13.5C20.25 15.688 19.3808 17.7865 17.8336 19.3336C16.2865 20.8808 14.188 21.75 12 21.75C9.81196 21.75 7.71354 20.8808 6.16637 19.3336C4.61919 17.7865 3.75 15.688 3.75 13.5C3.75 10.8825 4.78125 8.20594 6.81188 5.54531C6.87615 5.46107 6.95755 5.3914 7.05071 5.34089C7.14387 5.29039 7.24667 5.26021 7.35235 5.25232C7.45802 5.24444 7.56417 5.25904 7.66379 5.29516C7.76341 5.33128 7.85425 5.3881 7.93031 5.46187L10.1916 7.65656L12.2541 1.99313C12.2953 1.88017 12.363 1.77878 12.4516 1.69749C12.5402 1.61621 12.6471 1.55742 12.7632 1.52608C12.8792 1.49474 13.0011 1.49177 13.1186 1.51741C13.2361 1.54306 13.3457 1.59657 13.4381 1.67344C15.4884 3.375 20.25 7.92656 20.25 13.5ZM18.75 13.5C18.75 9.17906 15.3947 5.445 13.2928 3.53156L11.205 9.25687C11.1621 9.37447 11.0906 9.47946 10.9967 9.5623C10.9029 9.64514 10.7899 9.70318 10.6679 9.73114C10.5459 9.7591 10.4188 9.75608 10.2983 9.72237C10.1778 9.68866 10.0676 9.62532 9.97781 9.53812L7.50562 7.14C6.00844 9.30094 5.25 11.4375 5.25 13.5C5.25 15.2902 5.96116 17.0071 7.22703 18.273C8.4929 19.5388 10.2098 20.25 12 20.25C13.7902 20.25 15.5071 19.5388 16.773 18.273C18.0388 17.0071 18.75 15.2902 18.75 13.5Z" fill="var(--fill-0, #68FF62)"/>
</g>
</svg>
